<svg width="54" height="51" viewBox="0 0 54 51" fill="none" xmlns="http://www.w3.org/2000/svg">
<path d="M27.406 8.43907C27.2398 8.28012 27.0187 8.19141 26.7888 8.19141C26.5588 8.19141 26.3378 8.28012 26.1716 8.43907L5.62472 28.0674C5.53746 28.1509 5.46804 28.2512 5.42066 28.3623C5.37327 28.4733 5.34891 28.5929 5.34905 28.7136L5.3457 47.1355C5.3457 48.0827 5.72198 48.9911 6.39175 49.6609C7.06152 50.3307 7.96993 50.7069 8.91713 50.7069H19.6426C20.1162 50.7069 20.5704 50.5188 20.9053 50.1839C21.2402 49.849 21.4283 49.3948 21.4283 48.9212V33.7426C21.4283 33.5058 21.5224 33.2787 21.6898 33.1113C21.8572 32.9439 22.0843 32.8498 22.3211 32.8498H31.2497C31.4865 32.8498 31.7136 32.9439 31.8811 33.1113C32.0485 33.2787 32.1426 33.5058 32.1426 33.7426V48.9212C32.1426 49.3948 32.3307 49.849 32.6656 50.1839C33.0005 50.5188 33.4547 50.7069 33.9283 50.7069H44.6493C45.5965 50.7069 46.5049 50.3307 47.1747 49.6609C47.8444 48.9911 48.2207 48.0827 48.2207 47.1355V28.7136C48.2208 28.5929 48.1965 28.4733 48.1491 28.3623C48.1017 28.2512 48.0323 28.1509 47.945 28.0674L27.406 8.43907Z" fill="black"/>
<path d="M53.0034 24.3845L44.6552 16.3979V4.27846C44.6552 3.80486 44.467 3.35066 44.1321 3.01577C43.7973 2.68088 43.3431 2.49275 42.8695 2.49275H37.5123C37.0387 2.49275 36.5845 2.68088 36.2496 3.01577C35.9147 3.35066 35.7266 3.80486 35.7266 4.27846V7.84989L29.2623 1.66908C28.6574 1.05748 27.7579 0.707031 26.7858 0.707031C25.817 0.707031 24.9197 1.05748 24.3148 1.6702L0.575935 24.3823C-0.118261 25.0519 -0.205315 26.1535 0.426382 26.8789C0.58501 27.062 0.77924 27.2109 0.99725 27.3166C1.21526 27.4223 1.45249 27.4825 1.69451 27.4935C1.93652 27.5046 2.17826 27.4663 2.405 27.381C2.63175 27.2957 2.83876 27.1651 3.01344 26.9972L26.1719 4.86774C26.3381 4.7088 26.5592 4.62008 26.7891 4.62008C27.0191 4.62008 27.2401 4.7088 27.4063 4.86774L50.567 26.9972C50.9082 27.3244 51.3652 27.5029 51.8378 27.4937C52.3104 27.4845 52.76 27.2883 53.0882 26.9481C53.7735 26.2383 53.7166 25.0664 53.0034 24.3845Z" fill="black"/>
</svg>
